<mxfile host="app.diagrams.net" modified="2021-09-27T09:32:49.886Z" agent="5.0 (Macintosh)" etag="uJmaM3-GAePKDJiJHmi2" version="15.2.9" type="github">
  <diagram name="Page-1" id="c4acf3e9-155e-7222-9cf6-157b1a14988f">
    <mxGraphModel dx="1234" dy="1862" grid="1" gridSize="10" guides="1" tooltips="1" connect="1" arrows="1" fold="1" page="1" pageScale="1" pageWidth="850" pageHeight="1100" background="#ffffff" math="0" shadow="0">
      <root>
        <mxCell id="0" />
        <mxCell id="1" parent="0" />
        <mxCell id="17acba5748e5396b-1" value="&lt;b style=&quot;font-size: 12px;&quot;&gt;Metamodel&lt;/b&gt;" style="shape=umlFrame;whiteSpace=wrap;html=1;rounded=0;shadow=0;comic=0;labelBackgroundColor=none;strokeWidth=1;fontFamily=Verdana;fontSize=12;align=center;width=90;height=30;fillColor=#dae8fc;strokeColor=#6c8ebf;" parent="1" vertex="1">
          <mxGeometry x="120" y="-680" width="400" height="140" as="geometry" />
        </mxCell>
        <mxCell id="EUPt2hbITshMY0ZR5973-5" value="&lt;b&gt;Type&lt;/b&gt;" style="swimlane;html=1;fontStyle=0;childLayout=stackLayout;horizontal=1;startSize=26;fillColor=#dae8fc;horizontalStack=0;resizeParent=1;resizeLast=0;collapsible=1;marginBottom=0;swimlaneFillColor=#ffffff;rounded=0;shadow=0;comic=0;labelBackgroundColor=none;strokeWidth=1;fontFamily=Verdana;fontSize=10;align=center;strokeColor=#6c8ebf;" parent="1" vertex="1">
          <mxGeometry x="170" y="-620" width="110" height="50" as="geometry" />
        </mxCell>
        <mxCell id="a-3xQabaQIuShYP5bTJc-20" style="edgeStyle=none;rounded=0;orthogonalLoop=1;jettySize=auto;html=1;exitX=0;exitY=0.25;exitDx=0;exitDy=0;entryX=1;entryY=0.25;entryDx=0;entryDy=0;endArrow=blockThin;endFill=1;endSize=8;strokeWidth=2;" parent="1" source="a-3xQabaQIuShYP5bTJc-1" target="EUPt2hbITshMY0ZR5973-5" edge="1">
          <mxGeometry relative="1" as="geometry" />
        </mxCell>
        <mxCell id="a-3xQabaQIuShYP5bTJc-1" value="&lt;div&gt;&lt;b&gt;Object&lt;/b&gt;&lt;/div&gt;" style="swimlane;html=1;fontStyle=0;childLayout=stackLayout;horizontal=1;startSize=26;fillColor=#dae8fc;horizontalStack=0;resizeParent=1;resizeLast=0;collapsible=1;marginBottom=0;swimlaneFillColor=#ffffff;rounded=0;shadow=0;comic=0;labelBackgroundColor=none;strokeWidth=1;fontFamily=Verdana;fontSize=10;align=center;strokeColor=#6c8ebf;" parent="1" vertex="1">
          <mxGeometry x="367" y="-620" width="110" height="50" as="geometry" />
        </mxCell>
        <mxCell id="a-3xQabaQIuShYP5bTJc-24" value="type" style="edgeLabel;resizable=0;html=1;align=left;verticalAlign=bottom;" parent="1" connectable="0" vertex="1">
          <mxGeometry x="314" y="-610" as="geometry" />
        </mxCell>
        <mxCell id="P9pVSjddtb7rB-f62L4y-4" style="edgeStyle=none;rounded=0;orthogonalLoop=1;jettySize=auto;html=1;exitX=0.5;exitY=0;exitDx=0;exitDy=0;entryX=0.5;entryY=1;entryDx=0;entryDy=0;endArrow=open;endFill=0;endSize=8;dashed=1;" parent="1" target="EUPt2hbITshMY0ZR5973-5" edge="1">
          <mxGeometry relative="1" as="geometry">
            <mxPoint x="225" y="-440" as="sourcePoint" />
            <mxPoint x="290" y="-597.5" as="targetPoint" />
          </mxGeometry>
        </mxCell>
        <mxCell id="P9pVSjddtb7rB-f62L4y-5" value="instanceOf" style="text;html=1;align=center;verticalAlign=middle;resizable=0;points=[];autosize=1;strokeColor=none;" parent="1" vertex="1">
          <mxGeometry x="224" y="-525" width="70" height="20" as="geometry" />
        </mxCell>
        <mxCell id="P9pVSjddtb7rB-f62L4y-6" style="edgeStyle=none;rounded=0;orthogonalLoop=1;jettySize=auto;html=1;exitX=0.5;exitY=0;exitDx=0;exitDy=0;entryX=0.5;entryY=1;entryDx=0;entryDy=0;endArrow=open;endFill=0;endSize=8;dashed=1;" parent="1" edge="1">
          <mxGeometry relative="1" as="geometry">
            <mxPoint x="426" y="-440" as="sourcePoint" />
            <mxPoint x="426" y="-570" as="targetPoint" />
          </mxGeometry>
        </mxCell>
        <mxCell id="P9pVSjddtb7rB-f62L4y-7" value="instanceOf" style="text;html=1;align=center;verticalAlign=middle;resizable=0;points=[];autosize=1;strokeColor=none;" parent="1" vertex="1">
          <mxGeometry x="425" y="-525" width="70" height="20" as="geometry" />
        </mxCell>
        <mxCell id="P9pVSjddtb7rB-f62L4y-8" style="edgeStyle=none;rounded=0;orthogonalLoop=1;jettySize=auto;html=1;exitX=0;exitY=0.25;exitDx=0;exitDy=0;entryX=1;entryY=0.25;entryDx=0;entryDy=0;endArrow=blockThin;endFill=1;endSize=8;dashed=1;dashPattern=1 1;" parent="1" edge="1">
          <mxGeometry relative="1" as="geometry">
            <mxPoint x="367" y="-420.5" as="sourcePoint" />
            <mxPoint x="280" y="-420.5" as="targetPoint" />
          </mxGeometry>
        </mxCell>
        <mxCell id="P9pVSjddtb7rB-f62L4y-9" style="edgeStyle=none;rounded=0;orthogonalLoop=1;jettySize=auto;html=1;entryX=1;entryY=0.25;entryDx=0;entryDy=0;endArrow=blockThin;endFill=1;endSize=8;" parent="1" edge="1">
          <mxGeometry relative="1" as="geometry">
            <mxPoint x="399.5" y="-327" as="sourcePoint" />
            <mxPoint x="250" y="-327.5" as="targetPoint" />
          </mxGeometry>
        </mxCell>
        <mxCell id="P9pVSjddtb7rB-f62L4y-10" value="Ontologic instantiation" style="edgeLabel;resizable=0;html=1;align=left;verticalAlign=bottom;" parent="1" connectable="0" vertex="1">
          <mxGeometry x="275" y="-330" as="geometry" />
        </mxCell>
        <mxCell id="P9pVSjddtb7rB-f62L4y-11" style="edgeStyle=none;rounded=0;orthogonalLoop=1;jettySize=auto;html=1;entryX=1;entryY=0.25;entryDx=0;entryDy=0;endArrow=blockThin;endFill=1;endSize=8;" parent="1" edge="1">
          <mxGeometry relative="1" as="geometry">
            <mxPoint x="549" y="-420" as="sourcePoint" />
            <mxPoint x="549" y="-630" as="targetPoint" />
          </mxGeometry>
        </mxCell>
        <mxCell id="P9pVSjddtb7rB-f62L4y-12" value="&lt;div&gt;Linguistic&lt;/div&gt;&lt;div&gt; instantiation&lt;/div&gt;" style="edgeLabel;resizable=0;html=1;align=left;verticalAlign=bottom;" parent="1" connectable="0" vertex="1">
          <mxGeometry x="559" y="-500" as="geometry" />
        </mxCell>
        <mxCell id="P9pVSjddtb7rB-f62L4y-13" style="edgeStyle=none;rounded=0;orthogonalLoop=1;jettySize=auto;html=1;endArrow=open;endFill=0;endSize=8;dashed=1;" parent="1" edge="1">
          <mxGeometry relative="1" as="geometry">
            <mxPoint x="329" y="-420" as="sourcePoint" />
            <mxPoint x="329" y="-609" as="targetPoint" />
          </mxGeometry>
        </mxCell>
        <mxCell id="ye7w4QK7upPkJStOrjJq-1" value="" style="rounded=1;whiteSpace=wrap;html=1;fillColor=none;strokeColor=#d79b00;strokeWidth=2;" vertex="1" parent="1">
          <mxGeometry x="120" y="-475" width="400" height="110" as="geometry" />
        </mxCell>
        <mxCell id="P9pVSjddtb7rB-f62L4y-14" value="instanceOf" style="text;html=1;align=center;verticalAlign=middle;resizable=0;points=[];autosize=1;strokeColor=none;" parent="1" vertex="1">
          <mxGeometry x="328" y="-525" width="70" height="20" as="geometry" />
        </mxCell>
        <mxCell id="ye7w4QK7upPkJStOrjJq-2" value="TypeInstance" style="rounded=1;whiteSpace=wrap;html=1;strokeWidth=1;fillColor=#ffe6cc;strokeColor=#d79b00;" vertex="1" parent="1">
          <mxGeometry x="170" y="-440" width="110" height="40" as="geometry" />
        </mxCell>
        <mxCell id="ye7w4QK7upPkJStOrjJq-3" value="ObjectInstance" style="rounded=1;whiteSpace=wrap;html=1;strokeWidth=1;fillColor=#ffe6cc;strokeColor=#d79b00;" vertex="1" parent="1">
          <mxGeometry x="367" y="-440" width="110" height="40" as="geometry" />
        </mxCell>
        <mxCell id="ye7w4QK7upPkJStOrjJq-4" value="&lt;b&gt;Model&lt;/b&gt;" style="text;html=1;align=center;verticalAlign=middle;resizable=0;points=[];autosize=1;strokeColor=none;" vertex="1" parent="1">
          <mxGeometry x="120" y="-496" width="50" height="20" as="geometry" />
        </mxCell>
      </root>
    </mxGraphModel>
  </diagram>
</mxfile>
